<?xml version="1.0" encoding="utf-8"?>
<!-- Generator: Adobe Illustrator 16.0.0, SVG Export Plug-In . SVG Version: 6.00 Build 0)  -->
<!DOCTYPE svg PUBLIC "-//W3C//DTD SVG 1.1//EN" "http://www.w3.org/Graphics/SVG/1.1/DTD/svg11.dtd">
<svg version="1.1" id="Layer_1" xmlns="http://www.w3.org/2000/svg" xmlns:xlink="http://www.w3.org/1999/xlink" x="0px" y="0px"
	 width="1024px" height="1024px" viewBox="0 0 1024 1024" enable-background="new 0 0 1024 1024" xml:space="preserve">
<rect x="-6.5" y="-5.5" fill="#FFD366" width="1038" height="1038"/>
<path fill="#395C9E" d="M849.645,124.816H271.048c-66.833,0-120.901,53.692-121.848,120.241l-0.186-0.286v532.377
	c0,67.396,54.637,122.021,122.035,122.021h457.608c26.646,0,48.396-21.688,48.396-48.396v-508.17c0-13.328-10.873-24.2-24.205-24.2
	H342.602l-5.854,0.331l-65.693-0.331c-40.648,0-73.638-31.004-73.638-71.555c0-40.647,31.998-73.639,72.597-73.639H826.59v556.584
	c0,13.328,9.69,24.198,23.067,24.198c13.428,0,25.335-10.87,25.335-24.198V149.019C874.979,135.688,863.023,124.816,849.645,124.816
	z M473.977,404.107c108.688,0,197.311,84.665,203.74,191.431H557.107c-6.045-40.558-40.774-71.788-83.144-71.788
	c-42.349,0-77.087,31.229-83.104,71.788H270.246C276.675,488.768,365.289,404.107,473.977,404.107z M509.229,606.015
	c0,19.404-15.77,35.146-35.252,35.146c-19.462,0-35.231-15.732-35.231-35.146c0-19.415,15.771-35.143,35.231-35.146
	C493.458,570.868,509.229,586.598,509.229,606.015z M390.784,619.479c5.712,40.914,40.579,72.533,83.188,72.533
	c42.613,0,77.482-31.604,83.208-72.533h120.57c-6.068,107.104-94.837,192.188-203.778,192.188
	c-108.933,0-197.713-85.071-203.77-192.188H390.784L390.784,619.479z"/>
<rect x="252.5" y="396.5" fill="#395C9E" width="434" height="432"/>
<text transform="matrix(1.2584 0 0 1 250.499 766.5908)" fill="#FFD366" font-family="'MyriadPro-Regular'" font-size="533.998">G</text>
</svg>
